<mxfile host="app.diagrams.net" modified="2023-11-04T07:08:40.055Z" agent="Mozilla/5.0 (X11; Linux x86_64; rv:109.0) Gecko/20100101 Firefox/118.0" etag="Xc_gljVHYsFvaE_srAFw" version="22.0.8" type="github">
  <diagram name="Page-1" id="kkoMcajzsj8SHL4XXJcd">
    <mxGraphModel dx="470" dy="743" grid="1" gridSize="10" guides="1" tooltips="1" connect="1" arrows="1" fold="1" page="1" pageScale="1" pageWidth="850" pageHeight="1100" math="0" shadow="0">
      <root>
        <mxCell id="0" />
        <mxCell id="1" parent="0" />
        <mxCell id="CHgfHj3HehpbXA-Zd8Sf-8" value="" style="rounded=0;orthogonalLoop=1;jettySize=auto;html=1;" edge="1" parent="1" source="CHgfHj3HehpbXA-Zd8Sf-1" target="CHgfHj3HehpbXA-Zd8Sf-7">
          <mxGeometry relative="1" as="geometry" />
        </mxCell>
        <mxCell id="CHgfHj3HehpbXA-Zd8Sf-1" value="&lt;div&gt;仓库管理员&lt;/div&gt;" style="html=1;whiteSpace=wrap;" vertex="1" parent="1">
          <mxGeometry x="20" y="280" width="110" height="50" as="geometry" />
        </mxCell>
        <mxCell id="CHgfHj3HehpbXA-Zd8Sf-10" value="" style="rounded=0;orthogonalLoop=1;jettySize=auto;html=1;startArrow=classic;startFill=1;" edge="1" parent="1" source="CHgfHj3HehpbXA-Zd8Sf-3" target="CHgfHj3HehpbXA-Zd8Sf-9">
          <mxGeometry relative="1" as="geometry" />
        </mxCell>
        <mxCell id="CHgfHj3HehpbXA-Zd8Sf-3" value="1" style="swimlane;fontStyle=1;align=center;verticalAlign=top;childLayout=stackLayout;horizontal=1;startSize=26;horizontalStack=0;resizeParent=1;resizeParentMax=0;resizeLast=0;collapsible=1;marginBottom=0;whiteSpace=wrap;html=1;" vertex="1" parent="1">
          <mxGeometry x="220" y="230" width="70" height="56" as="geometry" />
        </mxCell>
        <mxCell id="CHgfHj3HehpbXA-Zd8Sf-7" value="处理事务" style="text;html=1;align=center;verticalAlign=middle;resizable=0;points=[];autosize=1;strokeColor=none;fillColor=none;" vertex="1" parent="CHgfHj3HehpbXA-Zd8Sf-3">
          <mxGeometry y="26" width="70" height="30" as="geometry" />
        </mxCell>
        <mxCell id="CHgfHj3HehpbXA-Zd8Sf-9" value="&lt;div align=&quot;center&quot;&gt;&lt;b&gt;D1&amp;nbsp; 库存清单&lt;/b&gt;&lt;/div&gt;" style="html=1;whiteSpace=wrap;align=center;" vertex="1" parent="1">
          <mxGeometry x="210" y="130" width="110" height="30" as="geometry" />
        </mxCell>
        <mxCell id="CHgfHj3HehpbXA-Zd8Sf-22" value="" style="rounded=0;orthogonalLoop=1;jettySize=auto;html=1;" edge="1" parent="1" source="CHgfHj3HehpbXA-Zd8Sf-13" target="CHgfHj3HehpbXA-Zd8Sf-21">
          <mxGeometry relative="1" as="geometry" />
        </mxCell>
        <mxCell id="CHgfHj3HehpbXA-Zd8Sf-13" value="2" style="swimlane;fontStyle=1;align=center;verticalAlign=top;childLayout=stackLayout;horizontal=1;startSize=26;horizontalStack=0;resizeParent=1;resizeParentMax=0;resizeLast=0;collapsible=1;marginBottom=0;whiteSpace=wrap;html=1;" vertex="1" parent="1">
          <mxGeometry x="355" y="224" width="70" height="56" as="geometry" />
        </mxCell>
        <mxCell id="CHgfHj3HehpbXA-Zd8Sf-14" value="产生报表" style="text;html=1;align=center;verticalAlign=middle;resizable=0;points=[];autosize=1;strokeColor=none;fillColor=none;" vertex="1" parent="CHgfHj3HehpbXA-Zd8Sf-13">
          <mxGeometry y="26" width="70" height="30" as="geometry" />
        </mxCell>
        <mxCell id="CHgfHj3HehpbXA-Zd8Sf-19" style="edgeStyle=orthogonalEdgeStyle;rounded=0;orthogonalLoop=1;jettySize=auto;html=1;entryX=0;entryY=0.25;entryDx=0;entryDy=0;curved=1;" edge="1" parent="1" source="CHgfHj3HehpbXA-Zd8Sf-15" target="CHgfHj3HehpbXA-Zd8Sf-13">
          <mxGeometry relative="1" as="geometry" />
        </mxCell>
        <mxCell id="CHgfHj3HehpbXA-Zd8Sf-15" value="&lt;div align=&quot;center&quot;&gt;&lt;b&gt;D2&amp;nbsp; 订货信息&lt;/b&gt;&lt;/div&gt;" style="html=1;whiteSpace=wrap;align=center;" vertex="1" parent="1">
          <mxGeometry x="245" y="380" width="110" height="30" as="geometry" />
        </mxCell>
        <mxCell id="CHgfHj3HehpbXA-Zd8Sf-17" style="edgeStyle=orthogonalEdgeStyle;rounded=0;orthogonalLoop=1;jettySize=auto;html=1;entryX=0;entryY=0.5;entryDx=0;entryDy=0;curved=1;" edge="1" parent="1" source="CHgfHj3HehpbXA-Zd8Sf-7" target="CHgfHj3HehpbXA-Zd8Sf-15">
          <mxGeometry relative="1" as="geometry" />
        </mxCell>
        <mxCell id="CHgfHj3HehpbXA-Zd8Sf-21" value="&lt;font style=&quot;font-size: 15px;&quot;&gt;采购员&lt;/font&gt;" style="whiteSpace=wrap;html=1;verticalAlign=top;fontStyle=1;startSize=26;" vertex="1" parent="1">
          <mxGeometry x="510" y="228.5" width="90" height="47" as="geometry" />
        </mxCell>
      </root>
    </mxGraphModel>
  </diagram>
</mxfile>
